<svg xmlns="http://www.w3.org/2000/svg" width="431" height="431" viewBox="0 0 431 431">
  <defs>
    <style>
      .cls-1 {
        fill: #e8f4e9;
      }

      .cls-2 {
        fill: #444;
      }
    </style>
  </defs>
  <g id="그룹_391" data-name="그룹 391" transform="translate(-99 -4660)">
    <rect id="사각형_26" data-name="사각형 26" class="cls-1" width="431" height="431" transform="translate(99 4660)"/>
    <g id="그룹_278" data-name="그룹 278" transform="translate(-3488.9 -1427.467)">
      <path id="패스_380" data-name="패스 380" class="cls-2" d="M236.984,107.947h-7.052V96.882h7.052a5.544,5.544,0,1,1,0,11.065m-13.416,17.719a3.048,3.048,0,0,0,3.153,2.954,3.1,3.1,0,0,0,3.211-2.954V113.911h6.038l9.025,13.4a3.246,3.246,0,0,0,4.406.65,2.871,2.871,0,0,0,.738-4.16l-7.6-11.284a11.864,11.864,0,0,0,2.243-1.231,11.143,11.143,0,0,0,4.471-8.817c0-6.392-5.446-11.55-12.271-11.55H226.721a3.013,3.013,0,0,0-3.153,2.954Zm-35.508-.273a3.052,3.052,0,0,0,3.156,2.954l.055-.055s0,.055.117.055h20.663a2.988,2.988,0,1,0,0-5.967H194.424v-9.886h15.45a2.986,2.986,0,1,0,0-5.963h-15.45V97.07h17.627a3.129,3.129,0,0,0,3.152-3.009,3.085,3.085,0,0,0-3.152-2.954H191.216a3.018,3.018,0,0,0-3.156,2.954Zm-39.9-31.277v31.277a3.132,3.132,0,0,0,6.253,0v-22.3l18.345,23.857a1.519,1.519,0,0,0,.286.325,3.193,3.193,0,0,0,2.35,1.073,3.09,3.09,0,0,0,3.156-2.954V94.009a3.083,3.083,0,0,0-3.156-2.9,3.026,3.026,0,0,0-3.094,2.9v22.3L153.787,92.29a3.3,3.3,0,0,0-4.358-.644,2.857,2.857,0,0,0-1.267,2.317c0,.052,0,.1,0,.153m-40.217,0v31.277a3.132,3.132,0,0,0,6.253,0v-22.3l18.342,23.857a1.435,1.435,0,0,0,.289.325,3.193,3.193,0,0,0,2.35,1.073,3.087,3.087,0,0,0,3.152-2.954V94.009a3.08,3.08,0,0,0-3.152-2.9,3.027,3.027,0,0,0-3.1,2.9v22.3L113.567,92.29a3.3,3.3,0,0,0-4.358-.644,2.857,2.857,0,0,0-1.267,2.317c0,.052,0,.1.006.153M91.332,125.393a3.012,3.012,0,0,0,3.152,2.954,3.1,3.1,0,0,0,3.211-2.954V93.687a3.1,3.1,0,0,0-3.211-2.957,3.015,3.015,0,0,0-3.152,2.957Z" transform="translate(3604.668 6192.865)"/>
      <path id="패스_381" data-name="패스 381" class="cls-2" d="M288.156,90.669h-7.449v8.242h7.449a10.734,10.734,0,1,1,0,21.468h-7.449v8.242h7.449a18.976,18.976,0,0,0,0-37.952" transform="translate(3604.668 6192.865)"/>
      <path id="패스_382" data-name="패스 382" class="cls-2" d="M267.868,108.886a2.591,2.591,0,0,0-2.646,2.646v15.355a2.593,2.593,0,0,0,2.646,2.649h2.912a2.594,2.594,0,0,0,2.649-2.649V111.532a2.592,2.592,0,0,0-2.649-2.646Z" transform="translate(3604.668 6192.865)"/>
      <path id="패스_383" data-name="패스 383" class="cls-2" d="M269.325,90.669a5.585,5.585,0,1,0,5.586,5.587,5.59,5.59,0,0,0-5.586-5.587" transform="translate(3604.668 6192.865)"/>
    </g>
  </g>
</svg>
