<svg xmlns="http://www.w3.org/2000/svg" width="432" height="431" viewBox="0 0 432 431">
  <defs>
    <style>
      .cls-1 {
        fill: #fbebdd;
      }

      .cls-2 {
        fill: #444;
      }
    </style>
  </defs>
  <g id="그룹_392" data-name="그룹 392" transform="translate(-529 -4660)">
    <rect id="사각형_40" data-name="사각형 40" class="cls-1" width="432" height="431" transform="translate(529 4660)"/>
    <g id="그룹_284" data-name="그룹 284" transform="translate(460.46 4769.302)">
      <path id="사각형_140" data-name="사각형 140" class="cls-2" d="M.818,0H5.912A.819.819,0,0,1,6.73.819V37.584a.818.818,0,0,1-.818.818H.819A.819.819,0,0,1,0,37.584V.818A.818.818,0,0,1,.818,0Z" transform="translate(273.1 86.765)"/>
      <path id="사각형_141" data-name="사각형 141" class="cls-2" d="M.818,0H5.912A.819.819,0,0,1,6.73.819V37.584a.818.818,0,0,1-.818.818H.819A.819.819,0,0,1,0,37.584V.818A.818.818,0,0,1,.818,0Z" transform="translate(360.85 86.765)"/>
      <path id="패스_397" data-name="패스 397" class="cls-2" d="M315.617,114.6a2.195,2.195,0,0,0,2.195-2.2v-6.121A8.782,8.782,0,0,0,309.03,97.5H305.9c-4.85,0-8.782,3.932-8.782,9.3v11.7c0,4.334,3.931,8.265,8.782,8.265h3.13a8.781,8.781,0,0,0,8.782-8.782v-.452a.731.731,0,0,0-.731-.731h-5.267a.731.731,0,0,0-.731.731v.237a3.293,3.293,0,0,1-3.293,3.293h-.648a3.293,3.293,0,0,1-3.293-3.293V114.6Zm-11.769-8.1a3.293,3.293,0,0,1,3.293-3.294h.648a3.293,3.293,0,0,1,3.293,3.294v2.4h-7.234Z" transform="translate(-13.193 -1.137)"/>
      <path id="패스_398" data-name="패스 398" class="cls-2" d="M410.525,86.765H398a.731.731,0,0,0-.731.731v36.939a.731.731,0,0,0,.731.731h12.525a9.514,9.514,0,0,0,9.513-9.513V96.278A9.513,9.513,0,0,0,410.525,86.765Zm2.783,27.941a4.757,4.757,0,0,1-4.757,4.757H404v-27h4.553a4.757,4.757,0,0,1,4.757,4.757Z" transform="translate(-23.8 0)"/>
      <path id="패스_399" data-name="패스 399" class="cls-2" d="M248.384,98.022h-5.266a.733.733,0,0,0-.732.732v19.073a3.293,3.293,0,0,1-3.293,3.293h-.87a3.293,3.293,0,0,1-3.293-3.293V98.754a.733.733,0,0,0-.732-.732h-5.266a.733.733,0,0,0-.732.732v19.287a8.782,8.782,0,0,0,8.782,8.782h3.353a8.782,8.782,0,0,0,8.783-8.782V98.754A.733.733,0,0,0,248.384,98.022Z" transform="translate(-5.895 -1.192)"/>
      <path id="패스_400" data-name="패스 400" class="cls-2" d="M212.271,97.5h-2.814a8.782,8.782,0,0,0-8.782,8.782v11.7a8.782,8.782,0,0,0,8.782,8.782h2.814a8.782,8.782,0,0,0,8.782-8.782v-11.7A8.782,8.782,0,0,0,212.271,97.5Zm2.052,20.27a3.293,3.293,0,0,1-3.294,3.293H210.7a3.293,3.293,0,0,1-3.293-3.293V106.5a3.293,3.293,0,0,1,3.293-3.294h.331a3.293,3.293,0,0,1,3.294,3.294Z" transform="translate(-2.98 -1.137)"/>
      <path id="패스_401" data-name="패스 401" class="cls-2" d="M353.738,97.5h-2.814a8.782,8.782,0,0,0-8.782,8.782v11.7a8.781,8.781,0,0,0,8.782,8.782h2.814a8.782,8.782,0,0,0,8.782-8.782v-11.7A8.782,8.782,0,0,0,353.738,97.5Zm2.052,20.27a3.293,3.293,0,0,1-3.294,3.293h-.331a3.293,3.293,0,0,1-3.293-3.293V106.5a3.293,3.293,0,0,1,3.293-3.294h.331a3.293,3.293,0,0,1,3.294,3.294Z" transform="translate(-17.962 -1.137)"/>
      <path id="패스_402" data-name="패스 402" class="cls-2" d="M270.868,96.365h-2.191a6.316,6.316,0,0,0-5.156,3.017V87.5a.732.732,0,0,0-.732-.731h-5.266a.731.731,0,0,0-.731.731v36.939a.731.731,0,0,0,.731.731h5.266a.732.732,0,0,0,.732-.731v-1.82a6.314,6.314,0,0,0,5.156,3.017h2.191c3.777,0,6.839-3.931,6.839-8.782v-11.7C277.707,100.3,274.645,96.365,270.868,96.365Zm.108,20.27a3.428,3.428,0,0,1-3.55,3.293h-.357a3.428,3.428,0,0,1-3.55-3.293V105.362a3.428,3.428,0,0,1,3.55-3.294h.357a3.428,3.428,0,0,1,3.55,3.294Z" transform="translate(-8.923 0)"/>
      <path id="패스_403" data-name="패스 403" class="cls-2" d="M192.725,86.765h-5.266a.732.732,0,0,0-.732.731V99.382a6.316,6.316,0,0,0-5.156-3.017h-2.191c-3.777,0-6.839,3.932-6.839,8.782v11.7c0,4.85,3.062,8.782,6.839,8.782h2.191a6.314,6.314,0,0,0,5.156-3.017v1.82a.732.732,0,0,0,.732.731h5.266a.732.732,0,0,0,.732-.731V87.5A.732.732,0,0,0,192.725,86.765Zm-9.548,33.163h-.357a3.428,3.428,0,0,1-3.55-3.293V105.362a3.428,3.428,0,0,1,3.55-3.294h.357a3.428,3.428,0,0,1,3.55,3.294v11.273A3.428,3.428,0,0,1,183.177,119.928Z" transform="translate(0 0)"/>
      <path id="패스_404" data-name="패스 404" class="cls-2" d="M337.454,97.473l-.209.067a8.782,8.782,0,0,0-5.663,5.624l-.2.6V98.692a.733.733,0,0,0-.732-.732h-5.266a.732.732,0,0,0-.731.732v26.873a.731.731,0,0,0,.731.731h5.266a.732.732,0,0,0,.732-.731V111.632a6.089,6.089,0,0,1,6.089-6.089.732.732,0,0,0,.731-.709l.2-6.641A.731.731,0,0,0,337.454,97.473Z" transform="translate(-16.11 -1.13)"/>
      <path id="사각형_142" data-name="사각형 142" class="cls-2" d="M.819,0H16.5a.818.818,0,0,1,.818.818V4.03a.818.818,0,0,1-.818.818H.819A.819.819,0,0,1,0,4.029V.819A.819.819,0,0,1,.819,0Z" transform="translate(199.224 87.192)"/>
      <rect id="사각형_143" data-name="사각형 143" class="cls-2" width="6.393" height="5.418" rx="2.709" transform="translate(222.473 86.907)"/>
      <rect id="사각형_144" data-name="사각형 144" class="cls-2" width="6.394" height="5.418" rx="2.709" transform="translate(236.66 86.907)"/>
    </g>
  </g>
</svg>
