<svg id="그룹_386" data-name="그룹 386" xmlns="http://www.w3.org/2000/svg" width="563" height="563" viewBox="0 0 563 563">
  <defs>
    <style>
      .cls-1 {
        fill: #fef4ec;
      }

      .cls-2 {
        fill: #d0a992;
      }

      .cls-3 {
        fill: #e8c6ab;
      }

      .cls-4 {
        fill: #f9d2a3;
      }

      .cls-5 {
        fill: #bfd8cb;
      }

      .cls-6 {
        fill: #eb9c47;
      }

      .cls-7 {
        fill: #dadada;
        mix-blend-mode: multiply;
        isolation: isolate;
      }

      .cls-8 {
        fill: #fbead8;
      }

      .cls-9 {
        fill: #fff;
      }

      .cls-10 {
        fill: #ea6e65;
      }
    </style>
  </defs>
  <rect id="사각형_290" data-name="사각형 290" class="cls-1" width="563" height="563"/>
  <path id="패스_475" data-name="패스 475" class="cls-2" d="M168.984,413.5s-7.2,15.569,0,24.2,30.774,33.473,58.773-15.789l-1.894-33.683-33.473-5.474Z" transform="translate(-8.715 -20.956)"/>
  <path id="패스_476" data-name="패스 476" class="cls-3" d="M140.932,377.225s-7.037,12.746-2.165,22.872c5.722,11.895,32.939,34.8,60.939-14.461l-1.9-33.683-33.473-5.473Z" transform="translate(-7.205 -18.972)"/>
  <path id="패스_477" data-name="패스 477" class="cls-4" d="M235.271,575.89l-26.21-36.157c-42-64.419-9.473-141.155-6.631-157.259s4.737-72.63,4.737-89.222c0-7.673,3.781-14.155,7.847-18.907,7.416-8.669,19.212-12.535,30.1-9.12q.6.189,1.213.409c11.368,4.105,18.946,12.631,19.894,32.21l2.842,73.742,48.841-2.481s38.946-13.789,30.736-40.314c-2.223-7.184-7.157-13.673-13.17-19.317-18.538-17.4-44.813-23.893-69.529-17.927-30.726,7.418-76.092,20.844-87.507,37.559C160.746,355,150.325,370.79,135.484,370.79c-14.082,0-31.006-8.244-24.341-32.553a24.54,24.54,0,0,1,3.261-7.075c5.852-8.809,23.337-34.5,33.4-42.476,12.21-9.684,83.787-71.156,104-77.471s98.945,38.315,139.786,66.1,58.946,34.1,46.314,75.788-41.262,136.839-41.262,136.839a20.947,20.947,0,0,0-.421,18.526c4.631,10.1,34.526,67.419,34.526,67.419Z" transform="translate(-6.041 -12.89)"/>
  <rect id="사각형_291" data-name="사각형 291" class="cls-5" width="201.679" height="301.677" rx="17.571" transform="translate(156.933 66.498)"/>
  <g id="그룹_380" data-name="그룹 380" transform="translate(187.024 181.537)">
    <path id="패스_478" data-name="패스 478" class="cls-6" d="M330.986,235.622l-16.468,48.995a4.1,4.1,0,0,1-3.884,2.792H228.941a4.1,4.1,0,0,1-3.882-2.785l-16.535-48.931,2.427-1.1c8.644,8.295,20.755,12.436,31.172,11.025,15.4-2.088,26.308-17.861,26.46-36.737h2.345c.163,18.876,11.06,34.649,26.447,36.737,10.325,1.4,22.318-2.648,30.95-10.8l.257.117Z" transform="translate(-198.042 -192.979)"/>
    <circle id="타원_98" data-name="타원 98" class="cls-6" cx="6.866" cy="6.866" r="6.866" transform="translate(64.848)"/>
    <circle id="타원_99" data-name="타원 99" class="cls-6" cx="6.866" cy="6.866" r="6.866" transform="translate(0 27.174)"/>
    <circle id="타원_100" data-name="타원 100" class="cls-6" cx="6.866" cy="6.866" r="6.866" transform="translate(127.745 27.174)"/>
    <path id="패스_479" data-name="패스 479" class="cls-6" d="M315.777,308.8h-90.34l.829-10.769a3.805,3.805,0,0,1,3.787-3.433h81.108a3.805,3.805,0,0,1,3.787,3.433Z" transform="translate(-198.894 -197.299)"/>
  </g>
  <path id="패스_480" data-name="패스 480" class="cls-7" d="M269.071,280.848l65.1,101.482h-56.6l-3.319-80.945Z" transform="translate(-14.148 -15.463)"/>
  <g id="그룹_382" data-name="그룹 382" transform="translate(196.45 252.058)">
    <path id="패스_481" data-name="패스 481" class="cls-4" d="M207.354,385.307c2.842-16.105,4.737-72.63,4.737-89.222,0-7.673,3.781-14.155,7.847-18.907,7.416-8.669,19.212-12.535,30.1-9.12q.6.189,1.213.409c11.368,4.105,18.946,12.631,19.894,32.21l2.842,93.788" transform="translate(-207.354 -266.823)"/>
    <g id="그룹_381" data-name="그룹 381" transform="translate(13.736 9.223)">
      <path id="패스_482" data-name="패스 482" class="cls-8" d="M260.976,317.527V293.488a10.072,10.072,0,0,0-.379-2.78c-1.157-4.025-5.465-14.172-19.515-14.172-13.144,0-17.407,9.592-18.718,14.387a16.056,16.056,0,0,0-.545,4.23v22.332a4.924,4.924,0,0,0,2.213,4.1c5.333,3.546,19.6,10.8,34.935-.1A4.851,4.851,0,0,0,260.976,317.527Z" transform="translate(-221.819 -276.536)"/>
      <path id="패스_483" data-name="패스 483" class="cls-9" d="M222.651,322.1C239.8,308.052,260.778,321,260.778,321s-2.391,8.661-19.654,8.223C226.129,328.839,222.651,322.1,222.651,322.1Z" transform="translate(-221.861 -278.503)"/>
    </g>
  </g>
  <g id="그룹_385" data-name="그룹 385" transform="translate(178.024 89.485)">
    <g id="그룹_383" data-name="그룹 383" transform="translate(0.066 54.966)">
      <path id="패스_484" data-name="패스 484" class="cls-10" d="M188.075,152.884h5.716l2.089,7.516q.12.407.275,1.068c.1.441.212.869.325,1.285q.192.745.384,1.56h.048q.168-.815.36-1.56.144-.624.312-1.285t.288-1.068l2.113-7.516h5.763v17.169h-3.89V160.58q0-.564.024-1.14c.016-.447.032-.936.048-1.464h-.048q-.192.745-.336,1.368-.121.553-.252,1.068c-.088.345-.157.6-.2.757l-2.474,8.884h-3.5l-2.45-8.861q-.071-.239-.217-.768t-.264-1.081q-.144-.624-.311-1.368h-.048c0,.528.009,1.017.024,1.464q.024.577.036,1.153c.008.384.012.664.012.84v8.62h-3.818Z" transform="translate(-188.075 -152.572)"/>
      <path id="패스_485" data-name="패스 485" class="cls-10" d="M209.164,152.884h13.015v3.506h-8.765v3.073h7.516v3.314h-7.516v3.674h8.908v3.6H209.164Z" transform="translate(-189.138 -152.572)"/>
      <path id="패스_486" data-name="패스 486" class="cls-10" d="M225.044,152.884h5.715l2.089,7.516q.12.407.276,1.068t.324,1.285q.192.745.385,1.56h.048q.167-.815.36-1.56.144-.624.311-1.285t.289-1.068l2.113-7.516h5.763v17.169h-3.891V160.58q0-.564.025-1.14c.015-.447.031-.936.047-1.464h-.047c-.129.5-.24.952-.336,1.368q-.121.553-.253,1.068c-.088.345-.156.6-.2.757l-2.473,8.884H232.08l-2.449-8.861q-.073-.239-.217-.768t-.264-1.081q-.144-.624-.312-1.368h-.047c0,.528.008,1.017.024,1.464q.024.577.036,1.153t.011.84v8.62h-3.817Z" transform="translate(-189.938 -152.572)"/>
      <path id="패스_487" data-name="패스 487" class="cls-10" d="M246.133,152.884h8.284a7.753,7.753,0,0,1,2.329.312,5.23,5.23,0,0,1,1.681.864,4.04,4.04,0,0,1,1.488,3.289,3.38,3.38,0,0,1-.624,2.113,3.874,3.874,0,0,1-1.777,1.249v.072a4.261,4.261,0,0,1,2.245,1.549,4.328,4.328,0,0,1,.828,2.653,5.13,5.13,0,0,1-.456,2.245,4.408,4.408,0,0,1-1.3,1.6,6.671,6.671,0,0,1-4.227,1.225h-8.476Zm7.66,6.8a2.368,2.368,0,0,0,1.489-.444,1.717,1.717,0,0,0,.024-2.545,2.307,2.307,0,0,0-1.489-.444h-3.481v3.434Zm.336,6.963a2.35,2.35,0,0,0,1.657-.553,1.894,1.894,0,0,0,.6-1.464,1.844,1.844,0,0,0-.66-1.549,2.593,2.593,0,0,0-1.646-.517h-3.745v4.082Z" transform="translate(-191.001 -152.572)"/>
      <path id="패스_488" data-name="패스 488" class="cls-10" d="M263.1,152.884h13.015v3.506H267.35v3.073h7.516v3.314H267.35v3.674h8.908v3.6H263.1Z" transform="translate(-191.856 -152.572)"/>
      <path id="패스_489" data-name="패스 489" class="cls-10" d="M278.98,152.884h8.212a8.429,8.429,0,0,1,2.377.324,5.709,5.709,0,0,1,1.909.949,4.408,4.408,0,0,1,1.261,1.549,4.746,4.746,0,0,1,.457,2.125,4.074,4.074,0,0,1-2.978,4.155v.072a3.637,3.637,0,0,1,1.717,1.116,4.176,4.176,0,0,1,.78,2.029,13.029,13.029,0,0,1,.18,1.645q.036.8.085,1.441a7.175,7.175,0,0,0,.144,1.057q.1.42.311.492v.217h-4.13a.719.719,0,0,1-.253-.492,9.62,9.62,0,0,1-.143-.961q-.061-.564-.108-1.225t-.144-1.309a3,3,0,0,0-.828-1.825,2.867,2.867,0,0,0-2.029-.624h-2.57v6.435H278.98Zm7.443,7.587a2.845,2.845,0,0,0,1.91-.552,1.929,1.929,0,0,0,.636-1.536,2.06,2.06,0,0,0-.612-1.537,2.528,2.528,0,0,0-1.837-.6h-3.29v4.226Z" transform="translate(-192.656 -152.572)"/>
      <path id="패스_490" data-name="패스 490" class="cls-10" d="M306.666,170.445a12.142,12.142,0,0,1-3.11-.372,7.058,7.058,0,0,1-2.4-1.1,5.2,5.2,0,0,1-1.561-1.825,5.6,5.6,0,0,1-.589-2.51h4.274a2.461,2.461,0,0,0,.985,1.874,4.169,4.169,0,0,0,2.377.576,5.28,5.28,0,0,0,1.021-.1,2.9,2.9,0,0,0,.876-.311,1.855,1.855,0,0,0,.625-.565,1.423,1.423,0,0,0,.239-.828,1.361,1.361,0,0,0-.252-.84,2.033,2.033,0,0,0-.733-.576,6.028,6.028,0,0,0-1.177-.42q-.7-.181-1.584-.4-1.13-.264-2.221-.6a7.449,7.449,0,0,1-1.957-.913,4.631,4.631,0,0,1-1.405-1.464,4.236,4.236,0,0,1-.539-2.233,4.977,4.977,0,0,1,.528-2.365,4.67,4.67,0,0,1,1.441-1.646,6.342,6.342,0,0,1,2.161-.96,11.064,11.064,0,0,1,2.689-.312,10.092,10.092,0,0,1,2.606.324,6.42,6.42,0,0,1,2.112.973,4.834,4.834,0,0,1,1.441,1.645,5.477,5.477,0,0,1,.612,2.341h-4.155a2.116,2.116,0,0,0-.84-1.536,3.177,3.177,0,0,0-1.921-.528,3.226,3.226,0,0,0-1.8.443,1.344,1.344,0,0,0-.672,1.165,1.133,1.133,0,0,0,.252.756,2.005,2.005,0,0,0,.733.517,7.1,7.1,0,0,0,1.213.4q.731.181,1.692.4,1.2.289,2.293.649a7.161,7.161,0,0,1,1.933.961,4.523,4.523,0,0,1,1.344,1.513,4.669,4.669,0,0,1,.505,2.281,4.984,4.984,0,0,1-2.029,4.142,6.905,6.905,0,0,1-2.233,1.081A9.936,9.936,0,0,1,306.666,170.445Z" transform="translate(-193.666 -152.555)"/>
      <path id="패스_491" data-name="패스 491" class="cls-10" d="M316.3,152.884h4.25v6.508h6.027v-6.508h4.249v17.169H326.58V162.9h-6.027v7.156H316.3Z" transform="translate(-194.537 -152.572)"/>
      <path id="패스_492" data-name="패스 492" class="cls-10" d="M334.1,152.884h4.25v17.169H334.1Z" transform="translate(-195.434 -152.572)"/>
      <path id="패스_493" data-name="패스 493" class="cls-10" d="M341.057,152.884h7.732a8.2,8.2,0,0,1,2.737.408,5.3,5.3,0,0,1,1.946,1.177,5.089,5.089,0,0,1,1.284,1.849,6.191,6.191,0,0,1,.444,2.377,6.073,6.073,0,0,1-.408,2.257,5.064,5.064,0,0,1-1.164,1.777,5.338,5.338,0,0,1-1.837,1.165,6.579,6.579,0,0,1-2.4.42h-4.01v5.739h-4.322Zm7.468,8.068a2.406,2.406,0,0,0,1.777-.624,2.24,2.24,0,0,0,.624-1.657,2.12,2.12,0,0,0-.624-1.621,2.493,2.493,0,0,0-1.777-.589h-3.146v4.491Z" transform="translate(-195.785 -152.572)"/>
    </g>
    <g id="그룹_384" data-name="그룹 384">
      <path id="패스_494" data-name="패스 494" class="cls-10" d="M188.005,94.672h11V139.09h-11Z" transform="translate(-188.005 -94.672)"/>
      <path id="패스_495" data-name="패스 495" class="cls-10" d="M205.994,94.672h18.947a21.18,21.18,0,0,1,8.387,1.615,18.747,18.747,0,0,1,6.491,4.534,20.425,20.425,0,0,1,4.194,7.082,27.319,27.319,0,0,1,1.491,9.257,25.993,25.993,0,0,1-1.988,10.467,18.426,18.426,0,0,1-5.715,7.423,18.783,18.783,0,0,1-5.964,3.013,25.9,25.9,0,0,1-7.579,1.026H205.994Zm17.457,35.161q5.465,0,8.2-3.261t2.733-9.412q0-6.088-2.795-9.692a9.545,9.545,0,0,0-8.014-3.6h-6.585v25.967Z" transform="translate(-188.912 -94.672)"/>
      <path id="패스_496" data-name="패스 496" class="cls-10" d="M252.179,94.672h11V139.09h-11Z" transform="translate(-191.239 -94.672)"/>
      <path id="패스_497" data-name="패스 497" class="cls-10" d="M270.169,94.672h11.057l13.17,22.3q.248.5.777,1.429t1.025,1.864q.621,1.118,1.243,2.361h.124q-.063-1.491-.063-2.857-.063-1.181-.062-2.3v-22.8h10.747V139.09H297.13L284.084,117.1a14.32,14.32,0,0,1-.839-1.4q-.528-.961-1.026-2.019-.621-1.179-1.3-2.547h-.124q0,1.617.063,3.043,0,1.244.03,2.455t.031,1.77V139.09H270.169Z" transform="translate(-192.146 -94.672)"/>
      <path id="패스_498" data-name="패스 498" class="cls-10" d="M334.926,139.9q-9.381,0-14.009-4.318t-4.628-12.144V94.672h11v29.136a7.637,7.637,0,0,0,1.771,5.28q1.769,1.99,5.87,1.988,3.85,0,5.684-2.082a7.836,7.836,0,0,0,1.832-5.374V94.672h11v28.763q0,7.7-4.627,12.083T334.926,139.9Z" transform="translate(-194.47 -94.672)"/>
    </g>
  </g>
</svg>
