<svg xmlns="http://www.w3.org/2000/svg" width="243.32" height="29.864" viewBox="0 0 243.32 29.864"><g transform="translate(-129.135 -1005.656)"><g transform="translate(364.35 1005.656)"><path d="M286.027,1009.708a3.886,3.886,0,0,1,.322-1.574,4.118,4.118,0,0,1,2.156-2.156,4.006,4.006,0,0,1,3.148,0,4.1,4.1,0,0,1,1.285.871,4.147,4.147,0,0,1,.872,1.285,4.022,4.022,0,0,1,0,3.148,4.127,4.127,0,0,1-2.157,2.156,4,4,0,0,1-3.148,0,4.118,4.118,0,0,1-2.156-2.156A3.89,3.89,0,0,1,286.027,1009.708Zm1.111,0a3.127,3.127,0,0,0,.229,1.193,3.027,3.027,0,0,0,.631.974,3.155,3.155,0,0,0,.937.66,2.8,2.8,0,0,0,2.288,0,3.117,3.117,0,0,0,.937-.66,3.031,3.031,0,0,0,.633-.974,3.239,3.239,0,0,0,0-2.387,3.031,3.031,0,0,0-.633-.974,3.09,3.09,0,0,0-.937-.66,2.8,2.8,0,0,0-2.288,0,3.127,3.127,0,0,0-.937.66,3.026,3.026,0,0,0-.631.974A3.128,3.128,0,0,0,287.138,1009.708Zm1.384-2.168h1.5c.115,0,.276.006.48.021a1.764,1.764,0,0,1,.6.155,1.315,1.315,0,0,1,.513.408,1.252,1.252,0,0,1,.217.79,1.448,1.448,0,0,1-.087.538,1.024,1.024,0,0,1-.223.348.909.909,0,0,1-.316.208,1.507,1.507,0,0,1-.364.093l1.088,1.688h-1.142l-.97-1.634h-.186v1.634h-1.111Zm1.1,1.765h.447c.066,0,.136,0,.213-.012a.609.609,0,0,0,.211-.054.384.384,0,0,0,.163-.135.531.531,0,0,0,0-.513.387.387,0,0,0-.163-.136.689.689,0,0,0-.211-.054c-.076-.007-.147-.01-.213-.01h-.447Z" transform="translate(-286.027 -1005.656)"/></g><g transform="translate(129.135 1005.69)"><path d="M129.135,1005.685h9.235v29.821h-9.235Z" transform="translate(-129.135 -1005.676)"/><path d="M140.992,1005.685H154.68a16.413,16.413,0,0,1,6.541,1.1,10.643,10.643,0,0,1,4.118,3.154,13.057,13.057,0,0,1,2.36,4.78,22.162,22.162,0,0,1,.732,5.778,20.061,20.061,0,0,1-1.087,7.414,12.3,12.3,0,0,1-3.021,4.415,9.86,9.86,0,0,1-4.15,2.369,21.364,21.364,0,0,1-5.493.814H140.992Zm9.214,6.754v16.292h2.258a9.5,9.5,0,0,0,4.109-.64,4.351,4.351,0,0,0,1.912-2.237,14.068,14.068,0,0,0,.691-5.177q0-4.738-1.546-6.489t-5.126-1.75Z" transform="translate(-123.216 -1005.676)"/><path d="M164.991,1005.685h9.235v29.821h-9.235Z" transform="translate(-111.235 -1005.676)"/><path d="M176.847,1005.685h8.6l11.229,16.5v-16.5h8.685v29.821H196.68l-11.168-16.373v16.373h-8.665Z" transform="translate(-105.316 -1005.676)"/><path d="M220.951,1005.685h9.195v17.259a14.965,14.965,0,0,1-.825,4.989,10.759,10.759,0,0,1-2.583,4.106,10.307,10.307,0,0,1-3.693,2.471,18.611,18.611,0,0,1-6.448,1,40.422,40.422,0,0,1-4.75-.306,12.415,12.415,0,0,1-4.3-1.208,10.742,10.742,0,0,1-3.163-2.571,9.4,9.4,0,0,1-1.962-3.436,17.8,17.8,0,0,1-.855-5.04v-17.259h9.195v17.682a5.194,5.194,0,0,0,1.351,3.811,5.828,5.828,0,0,0,7.487.021,5.188,5.188,0,0,0,1.352-3.832Z" transform="translate(-92.976 -1005.676)"/><g transform="translate(150.046)"><path d="M231.561,1005.679v11.683h-2.343v-11.683Z" transform="translate(-229.218 -1005.679)"/><path d="M240.137,1008.245a4,4,0,0,1,1.021,2.921v5.439h-2.343v-5.121a2.415,2.415,0,0,0-.552-1.7,1.961,1.961,0,0,0-1.507-.592,2.007,2.007,0,0,0-1.531.592,2.383,2.383,0,0,0-.561,1.7v5.121h-2.343v-9.271h2.343v1.153a3.264,3.264,0,0,1,1.2-.946,3.714,3.714,0,0,1,1.6-.342A3.568,3.568,0,0,1,240.137,1008.245Z" transform="translate(-227.668 -1004.921)"/><path d="M247.518,1008.245a4,4,0,0,1,1.021,2.921v5.439H246.2v-5.121a2.408,2.408,0,0,0-.553-1.7,1.96,1.96,0,0,0-1.505-.592,2.008,2.008,0,0,0-1.532.592,2.39,2.39,0,0,0-.561,1.7v5.121H239.7v-9.271h2.343v1.153a3.264,3.264,0,0,1,1.2-.946,3.714,3.714,0,0,1,1.6-.342A3.574,3.574,0,0,1,247.518,1008.245Z" transform="translate(-223.985 -1004.921)"/><path d="M255.835,1012.676h-6.779a2.3,2.3,0,0,0,.7,1.574,2.168,2.168,0,0,0,1.523.57,1.911,1.911,0,0,0,1.858-1.121h2.528a4.214,4.214,0,0,1-1.54,2.2,4.5,4.5,0,0,1-2.795.862,4.821,4.821,0,0,1-2.4-.6,4.156,4.156,0,0,1-1.658-1.682,5.155,5.155,0,0,1-.594-2.511,5.242,5.242,0,0,1,.586-2.526,4.074,4.074,0,0,1,1.64-1.673,5.267,5.267,0,0,1,4.794-.018,4,4,0,0,1,1.624,1.616,4.883,4.883,0,0,1,.579,2.4A5.637,5.637,0,0,1,255.835,1012.676Zm-2.361-1.573a1.853,1.853,0,0,0-.652-1.447,2.306,2.306,0,0,0-1.556-.546,2.118,2.118,0,0,0-1.465.529,2.318,2.318,0,0,0-.729,1.463Z" transform="translate(-220.501 -1004.926)"/><path d="M257.492,1007.616a3.3,3.3,0,0,1,1.666-.418v2.46h-.619a1.954,1.954,0,0,0-2.226,2.327v4.619h-2.343v-9.271h2.343v1.439A3.3,3.3,0,0,1,257.492,1007.616Z" transform="translate(-216.862 -1004.921)"/><path d="M238.909,1017.679v11.684h-2.343v-4.97h-5v4.97h-2.343v-11.684h2.343v4.8h5v-4.8Z" transform="translate(-229.218 -999.688)"/><path d="M245.977,1024.676H239.2a2.307,2.307,0,0,0,.7,1.574,2.167,2.167,0,0,0,1.523.57,1.911,1.911,0,0,0,1.858-1.121h2.528a4.216,4.216,0,0,1-1.54,2.2,4.5,4.5,0,0,1-2.795.862,4.818,4.818,0,0,1-2.4-.6,4.157,4.157,0,0,1-1.658-1.682,5.155,5.155,0,0,1-.594-2.511,5.242,5.242,0,0,1,.586-2.526,4.074,4.074,0,0,1,1.64-1.673,5.267,5.267,0,0,1,4.794-.018,3.994,3.994,0,0,1,1.624,1.616,4.883,4.883,0,0,1,.579,2.4A5.639,5.639,0,0,1,245.977,1024.676Zm-2.361-1.573a1.853,1.853,0,0,0-.652-1.447,2.306,2.306,0,0,0-1.556-.546,2.118,2.118,0,0,0-1.465.529,2.318,2.318,0,0,0-.729,1.463Z" transform="translate(-225.422 -998.936)"/><path d="M244.27,1021.446a4.1,4.1,0,0,1,1.523-1.673,4.049,4.049,0,0,1,2.151-.586,3.8,3.8,0,0,1,1.816.417,3.71,3.71,0,0,1,1.247,1.055v-1.321h2.36v9.271h-2.36v-1.355a3.488,3.488,0,0,1-1.247,1.079,3.81,3.81,0,0,1-1.834.427,3.928,3.928,0,0,1-2.133-.6,4.2,4.2,0,0,1-1.523-1.7,5.468,5.468,0,0,1-.561-2.52A5.372,5.372,0,0,1,244.27,1021.446Zm6.4,1.063a2.337,2.337,0,0,0-.9-.937,2.4,2.4,0,0,0-1.22-.327,2.36,2.36,0,0,0-1.205.318,2.388,2.388,0,0,0-.9.93,2.9,2.9,0,0,0-.343,1.447,3.005,3.005,0,0,0,.343,1.466,2.445,2.445,0,0,0,.9.961,2.278,2.278,0,0,0,1.2.336,2.411,2.411,0,0,0,1.22-.327,2.366,2.366,0,0,0,.9-.937,3.362,3.362,0,0,0,0-2.929Z" transform="translate(-221.984 -998.936)"/><path d="M254.023,1017.21V1029.6H251.68V1017.21Z" transform="translate(-218.005 -999.923)"/><path d="M257.758,1021.976v4.486a.887.887,0,0,0,.225.678,1.114,1.114,0,0,0,.763.21h1.087v1.974H258.36q-2.964,0-2.962-2.878v-4.469h-1.1v-1.923h1.1v-2.3h2.36v2.3h2.075v1.923Z" transform="translate(-216.7 -999.649)"/><path d="M266.212,1020.651a3.171,3.171,0,0,1,1.28,1.357,4.641,4.641,0,0,1,.46,2.15v5.439h-2.343v-5.121a2.414,2.414,0,0,0-.552-1.7,1.964,1.964,0,0,0-1.507-.592,2.007,2.007,0,0,0-1.531.592,2.383,2.383,0,0,0-.561,1.7v5.121h-2.343V1017.21h2.343v4.268a3.072,3.072,0,0,1,1.2-.946,4,4,0,0,1,1.675-.342A3.757,3.757,0,0,1,266.212,1020.651Z" transform="translate(-214.292 -999.923)"/><path d="M281.888,1017.679v11.684h-2.343v-7.6l-3.129,7.6h-1.775l-3.145-7.6v7.6h-2.343v-11.684h2.661l3.715,8.688,3.717-8.688Z" transform="translate(-209.282 -999.688)"/><path d="M279.346,1021.446a4.107,4.107,0,0,1,1.523-1.673,4.049,4.049,0,0,1,2.151-.586,3.8,3.8,0,0,1,1.816.417,3.71,3.71,0,0,1,1.247,1.055v-1.321h2.36v9.271h-2.36v-1.355a3.488,3.488,0,0,1-1.247,1.079,3.808,3.808,0,0,1-1.832.427,3.933,3.933,0,0,1-2.135-.6,4.215,4.215,0,0,1-1.523-1.7,5.468,5.468,0,0,1-.559-2.52A5.371,5.371,0,0,1,279.346,1021.446Zm6.4,1.063a2.347,2.347,0,0,0-.9-.937,2.4,2.4,0,0,0-1.222-.327,2.351,2.351,0,0,0-2.1,1.247,2.9,2.9,0,0,0-.343,1.447,3.006,3.006,0,0,0,.343,1.466,2.445,2.445,0,0,0,.9.961,2.278,2.278,0,0,0,1.2.336,2.42,2.42,0,0,0,1.222-.327,2.376,2.376,0,0,0,.9-.937,3.376,3.376,0,0,0,0-2.929Z" transform="translate(-204.472 -998.936)"/><path d="M289.1,1017.21V1029.6h-2.343V1017.21Z" transform="translate(-200.493 -999.923)"/><path d="M292.2,1017.21V1029.6h-2.343V1017.21Z" transform="translate(-198.944 -999.923)"/></g></g></g></svg>